<?xml version="1.0" standalone="no"?><!DOCTYPE svg PUBLIC "-//W3C//DTD SVG 1.1//EN" "http://www.w3.org/Graphics/SVG/1.1/DTD/svg11.dtd"><svg t="1549865249219" class="icon" style="" viewBox="0 0 1024 1024" version="1.1" xmlns="http://www.w3.org/2000/svg" p-id="8760" xmlns:xlink="http://www.w3.org/1999/xlink" width="200" height="200"><defs><style type="text/css"></style></defs><path d="M189.931313 911.644444H833.939394V112.355556H189.931313v799.288888z m592.420202-747.571717V859.79798H241.648485V164.072727h540.70303zM189.931313 299.054545l-14.222222-53.139393 14.222222-3.749495v-53.527273l-77.575757 20.686869 77.575757 289.616161zM834.068687 299.054545l14.222222-53.139393-14.222222-3.749495v-53.527273l77.575757 20.686869-77.575757 289.616161z" fill="" p-id="8761"></path><path d="M781.058586 164.072727C768 301.252525 652.541414 408.565657 512 408.565657c-140.541414 0-256-107.313131-269.058586-244.49293H190.965657C204.153535 329.826263 342.884848 460.282828 512 460.282828s307.846465-130.456566 321.034343-296.210101h-51.975757z" fill=""></path></svg>
